<?xml version="1.0" encoding="UTF-8"?>
<svg width="230px" height="199px" viewBox="0 0 230 199" version="1.1" xmlns="http://www.w3.org/2000/svg" xmlns:xlink="http://www.w3.org/1999/xlink">
    <!-- Generator: Sketch 49.3 (51167) - http://www.bohemiancoding.com/sketch -->
    <title>Group 6</title>
    <desc>Created with Sketch.</desc>
    <defs></defs>
    <g id="Page-1" stroke="none" stroke-width="1" fill="none" fill-rule="evenodd">
        <g id="Desktop-HD-Copy-5" transform="translate(-674.000000, -156.000000)" fill-rule="nonzero">
            <g id="Group-6" transform="translate(662.000000, 156.000000)">
                <g id="Page-1-Copy" transform="translate(80.000000, 0.000000)" fill="#1C2023">
                    <g id="filehappy">
                        <path d="M152,51.9295238 L114,14.0247618 L19,14.0247618 L19,184.59619 L152,184.59619 L152,51.9295238 Z M114,34.1142857 L131.86,51.9295238 L114,51.9295238 L114,34.1142857 Z M137.75,170.381904 L33.25,170.381904 L33.25,28.2390475 L104.5,28.2390475 L104.5,61.4057142 L137.75,61.4057142 L137.75,170.381904 Z" id="Shape" transform="translate(85.500000, 99.310476) rotate(14.000000) translate(-85.500000, -99.310476) "></path>
                        <g id="Group" transform="translate(83.587910, 109.754198) rotate(15.000000) translate(-83.587910, -109.754198) translate(45.587910, 82.254198)">
                            <ellipse id="Oval" cx="13.9063919" cy="8.8922384" rx="9.04991768" ry="8.88780494"></ellipse>
                            <ellipse id="Oval" cx="60.5803673" cy="8.89215539" rx="9.05000223" ry="8.88788796"></ellipse>
                            <path d="M3.23308453,54.9299744 C2.74952501,54.9300574 2.25894883,54.821047 1.79838375,54.5909874 C0.237889863,53.8113918 -0.383720816,51.9370414 0.410009997,50.4044179 C3.12817239,45.1562202 8.17240822,40.690524 14.9973604,37.4900309 C21.7370134,34.3296381 29.7024727,32.6590287 38.0326307,32.6590287 C46.3233937,32.6590287 54.2579966,34.315026 60.9784593,37.4481866 C67.7794873,40.6187911 72.8276963,45.0476248 75.5773914,50.2558048 C76.3832958,51.7823676 75.7765639,53.6614504 74.2223259,54.4529183 C72.6678343,55.2443865 70.7545618,54.64844 69.9486574,53.1221263 C67.871634,49.1879497 63.7202925,45.6193281 58.2594516,43.0734794 C52.3831891,40.3340187 45.3889065,38.8859136 38.0326307,38.8859136 C30.6419476,38.8859136 23.6211201,40.3463063 17.7293026,43.1091798 C12.254851,45.6763656 8.11103336,49.2697285 6.06123136,53.2274007 C5.50184092,54.3077924 4.38813236,54.9298914 3.23308453,54.9299744 Z" id="Shape" transform="translate(37.999344, 43.794502) rotate(180.000000) translate(-37.999344, -43.794502) "></path>
                        </g>
                    </g>
                </g>
                <g id="Group-5" transform="translate(46.170384, 83.621762) rotate(-324.000000) translate(-46.170384, -83.621762) translate(10.170384, 54.621762)" fill="#000000">
                    <path d="M0.910897447,23.5304457 C0.910897447,20.5284457 3.35025396,18.0934457 6.35986268,18.0934457 L27.2086439,18.0934457 C24.3122839,14.5024457 22.5684547,9.94844569 22.5684547,4.99144569 C22.5684547,2.33644569 24.7251906,0.184445689 27.3860335,0.184445689 C30.0468763,0.184445689 32.2036122,2.33644569 32.2036122,4.99144569 C32.2036122,11.2374457 37.295794,16.3184457 43.5555396,16.3184457 C44.0396026,16.3184457 44.5026193,16.3984457 44.940581,16.5324457 L44.940581,57.2014457 L18.0084415,57.2014457 C14.9998349,57.2014457 12.5594762,54.7674457 12.5594762,51.7644457 C12.5594762,50.1934457 13.2309507,48.7824457 14.2992967,47.7894457 L13.9104428,47.7894457 C10.9018363,47.7894457 8.46147755,45.3554457 8.46147755,42.3524457 C8.46147755,40.7814457 9.13395423,39.3694457 10.201298,38.3774457 L9.99885343,38.3774457 C6.99024692,38.3774457 4.5498882,35.9434457 4.5498882,32.9404457 C4.5498882,31.3674457 5.22336708,29.9544457 6.29371743,28.9624457 C3.31517694,28.9284457 0.910897447,26.5114457 0.910897447,23.5304457 Z" id="Shape"></path>
                    <path d="M48.0295124,18.0934457 L48.2179262,18.0934457 L48.2179262,15.6184457 L71.2725512,15.6184457 L71.2725512,57.1674457 L63.8191845,57.1674457 C63.6237554,57.1884457 63.4263219,57.2014457 63.2258817,57.2014457 L48.0295124,57.2014457 L48.0295124,18.0934457 Z" id="Shape"></path>
                </g>
            </g>
        </g>
    </g>
</svg>