<?xml version="1.0" encoding="UTF-8"?>
<svg width="203px" height="175px" viewBox="0 0 203 175" version="1.1" xmlns="http://www.w3.org/2000/svg" xmlns:xlink="http://www.w3.org/1999/xlink">
    <!-- Generator: Sketch 49.3 (51167) - http://www.bohemiancoding.com/sketch -->
    <title>fileintro</title>
    <desc>Created with Sketch.</desc>
    <defs></defs>
    <g id="Page-1" stroke="none" stroke-width="1" fill="none" fill-rule="evenodd">
        <g id="Desktop-HD-Copy-4" transform="translate(-792.000000, -301.000000)" fill-rule="nonzero">
            <g id="fileintro" transform="translate(785.000000, 301.000000)">
                <g id="filehappy" transform="translate(68.000000, 0.000000)">
                    <g id="Page-1">
                        <g id="filehappy">
                            <path d="M133.333333,45.6666667 L100,12.3333333 L16.6666667,12.3333333 L16.6666667,162.333333 L133.333333,162.333333 L133.333333,45.6666667 Z M100,30 L115.666667,45.6666667 L100,45.6666667 L100,30 Z M120.833333,149.833333 L29.1666667,149.833333 L29.1666667,24.8333333 L91.6666667,24.8333333 L91.6666667,54 L120.833333,54 L120.833333,149.833333 Z" id="Shape" fill="#12100B" transform="translate(75.000000, 87.333333) rotate(14.000000) translate(-75.000000, -87.333333) "></path>
                            <g id="Group" transform="translate(73.408048, 96.865112) rotate(15.000000) translate(-73.408048, -96.865112) translate(39.908048, 72.365112)" fill="#000000">
                                <ellipse id="Oval" cx="12.1931035" cy="7.8227719" rx="7.93852428" ry="7.81590887"></ellipse>
                                <ellipse id="Oval" cx="53.1351872" cy="7.8226989" rx="7.93859845" ry="7.81598187"></ellipse>
                                <path d="M2.83055316,48.3082182 C2.40637814,48.3082912 1.97604816,48.2124277 1.5720437,48.010114 C0.203189416,47.32454 -0.342083109,45.6762419 0.35417199,44.3284574 C2.73852497,39.7132082 7.16329324,35.7860884 13.1500934,32.9715844 C19.0620697,30.1923445 26.0493147,28.7232157 33.3564709,28.7232157 C40.62907,28.7232157 47.589248,30.1794947 53.4843907,32.9347867 C59.4502047,35.7230067 63.8784582,39.6177097 66.2904715,44.1977675 C66.9974052,45.5402222 66.4651842,47.192682 65.1018175,47.8886965 C63.7382284,48.5847112 62.0599192,48.0606377 61.3529855,46.718402 C59.5310352,43.258699 55.8895075,40.1204639 51.0992962,37.8816522 C45.94468,35.4725787 39.8093444,34.1991195 33.3564709,34.1991195 C26.8734155,34.1991195 20.7147949,35.4833844 15.5465339,37.913047 C10.7443834,40.1706225 7.10945564,43.330615 5.31138371,46.81098 C4.82069034,47.7610732 3.84375301,48.3081452 2.83055316,48.3082182 Z" id="Shape" transform="translate(33.327272, 38.515717) rotate(180.000000) translate(-33.327272, -38.515717) "></path>
                            </g>
                        </g>
                    </g>
                </g>
                <g id="Group-2" transform="translate(34.141506, 61.456969) scale(-1, 1) rotate(22.000000) translate(-34.141506, -61.456969) translate(9.641506, 30.956969)" fill="#000000">
                    <path d="M46.9804588,15.820621 C44.1969662,14.502874 42.7715782,17.4183801 42.7715782,17.4183801 L35.8099215,28.8805005 L34.4101304,28.0683921 L39.4081304,9.49131982 C39.4081304,9.49131982 40.0678021,6.40530778 37.1789961,5.80633187 C33.9676677,5.10005476 33.0169215,7.68704271 33.0169215,7.68704271 L28.3202349,25.7937536 L26.7558916,25.3601391 L29.0413394,3.66471741 C29.0413394,3.66471741 29.2358767,0.283994522 26.0062647,0.0157415102 C22.7744588,-0.255451261 22.374414,3.06721139 22.374414,3.06721139 L20.1811155,24.7648379 L18.7813244,24.7648379 L17.1504289,4.65321139 C17.1504289,4.65321139 16.4110409,1.37758488 13.5865931,1.37758488 C10.7650707,1.37758488 10.6246528,5.22425958 10.6246528,5.22425958 L11.3428319,29.9638018 L10.6246528,30.7560668 L5.27341399,26.5242837 C5.27341399,26.5242837 2.75905579,24.5105487 0.747130413,26.569115 C-1.07025765,28.4277777 0.999443845,31.2631752 0.999443845,31.2631752 L11.5615035,47.6714403 L34.9176827,49.0737054 L48.4511901,19.6849343 C48.4511901,19.6849343 49.5131006,17.0766331 46.9804588,15.820621" id="Shape"></path>
                    <polygon id="Shape" points="6.58208955 56.4551325 6.58208955 60.3723614 36.0925224 60.3723614 36.0925224 51.7110964 9.0971791 49.9759036"></polygon>
                </g>
            </g>
        </g>
    </g>
</svg>