<svg width="285px" height="75px" viewBox="0 0 285 75" version="1.1" xmlns="http://www.w3.org/2000/svg" xmlns:xlink="http://www.w3.org/1999/xlink">
    <g id="Page-1" stroke="none" stroke-width="1" fill="none" fill-rule="evenodd">
        <g id="Desktop-HD-Copy-3" transform="translate(-36.000000, -20.000000)">
            <g id="Group-4" transform="translate(39.000000, 23.000000)">
                <g id="Group-5">
                    <path d="M20.2265625,33.6285511 C20.2895363,32.6299666 20.5886574,31.7528447 21.1239347,30.9971591 C21.659212,30.2414735 22.3361701,29.6094959 23.1548295,29.1012074 C23.9734889,28.5929189 24.8528599,28.2105837 25.7929688,27.9541903 C26.7330776,27.697797 27.643935,27.5741003 28.5255682,27.5830966 C29.9829618,27.6010891 31.3661156,27.884467 32.675071,28.4332386 C33.9840264,28.9820103 35.056814,29.8771245 35.8934659,31.118608 L31.2244318,34.2492898 C30.882574,33.7724881 30.4844956,33.3789078 30.0301847,33.0685369 C29.5758737,32.7581661 29.0428534,32.602983 28.431108,32.602983 C28.0172801,32.602983 27.5562289,32.67945 27.0479403,32.8323864 C26.5396518,32.9853227 26.2315346,33.3046851 26.1235795,33.790483 C26.0426132,34.1593295 26.1303254,34.4449564 26.3867188,34.6473722 C26.6431121,34.8497879 26.9557273,35.0072201 27.3245739,35.1196733 C27.6934204,35.2321265 27.9992886,35.3333329 28.2421875,35.4232955 L29.2137784,35.8146307 C30.6171945,36.3723986 31.7911885,37.137069 32.7357955,38.1086648 C33.6804025,39.0802605 34.0987221,40.3846983 33.990767,42.022017 C33.8918082,43.4254332 33.4217608,44.6016761 32.5806108,45.5507812 C31.7394608,46.4998864 30.6981596,47.2128291 29.4566761,47.6896307 C28.2151927,48.1664323 26.9512375,48.4003315 25.6647727,48.3913352 C24.0454464,48.3733427 22.5678334,48.0449843 21.2318892,47.40625 C19.895945,46.7675157 18.7646827,45.7734442 17.8380682,44.4240057 L22.5205966,41.2933239 C22.9074356,41.8870768 23.3572418,42.3728674 23.8700284,42.7507102 C24.3828151,43.128553 25.0125436,43.3174716 25.759233,43.3174716 C26.2090458,43.3264678 26.7060816,43.2320086 27.2503551,43.0340909 C27.7946287,42.8361733 28.1252362,42.4808264 28.2421875,41.9680398 C28.3501426,41.5272232 28.2152008,41.1651293 27.837358,40.8817472 C27.4595152,40.5983651 27.0187052,40.371213 26.5149148,40.2002841 C26.0111244,40.0293552 25.6197931,39.8944134 25.3409091,39.7954545 L24.4637784,39.4580966 C23.1503249,38.9543062 22.0910315,38.2278693 21.2858665,37.2787642 C20.4807015,36.3296591 20.1276037,35.1129336 20.2265625,33.6285511 Z M47.7954545,19.5944602 L43.1129261,48 L37.2698864,48 L41.9659091,19.5944602 L47.7954545,19.5944602 Z M58.1590909,48 L58.4829545,46.1917614 L58.415483,46.2052557 C57.1110257,47.6896381 55.4602373,48.418324 53.4630682,48.3913352 C52.3475323,48.3733427 51.3354686,48.1079571 50.4268466,47.5951705 C49.5182246,47.0823838 48.8052819,46.3829353 48.2879972,45.496804 C47.7707124,44.6106727 47.5525564,43.5918618 47.6335227,42.4403409 C47.7234853,41.1268874 48.0765831,40.0383566 48.6928267,39.1747159 C49.3090703,38.3110752 50.09848,37.6273699 51.0610795,37.1235795 C52.0236791,36.6197891 53.0717273,36.2621933 54.2052557,36.0507812 C55.3387841,35.8393692 56.4677974,35.7381628 57.5923295,35.7471591 L59.7244318,35.7741477 L59.9673295,34.640625 C60.0842809,33.9029319 60.0055648,33.2687053 59.731179,32.7379261 C59.4567931,32.207147 58.9057807,31.9282672 58.078125,31.9012784 C56.5487613,31.8562971 55.6581452,32.580485 55.40625,34.0738636 L49.5767045,34.087358 C49.6306821,32.935837 49.9500444,31.9440146 50.5348011,31.1118608 C51.1195578,30.279707 51.868485,29.5982508 52.7816051,29.0674716 C53.6947252,28.5366924 54.6775516,28.1453611 55.7301136,27.8934659 C56.7826757,27.6415707 57.8127317,27.5246211 58.8203125,27.5426136 C60.2507174,27.5606062 61.5259177,27.8529801 62.6459517,28.4197443 C63.7659857,28.9865085 64.6183683,29.8006576 65.203125,30.8622159 C65.7878817,31.9237742 65.9947925,33.2102197 65.8238636,34.7215909 L63.678267,48 L58.1590909,48 Z M59.3870739,39.0667614 L57.4978693,39.0667614 C56.5442661,39.0757576 55.6806383,39.3321471 54.9069602,39.8359375 C54.1332821,40.3397279 53.683476,41.0999002 53.5575284,42.1164773 C53.4855584,42.6742452 53.609255,43.1083081 53.9286222,43.418679 C54.2479893,43.7290498 54.6775541,43.8932291 55.2173295,43.9112216 C55.9100413,43.9382104 56.5577621,43.7987705 57.1605114,43.4928977 C57.7632606,43.187025 58.2760396,42.7687053 58.6988636,42.2379261 L59.3870739,39.0667614 Z M87.2663352,35.5987216 L81.8146307,35.5987216 C81.7606531,34.7080921 81.5245049,33.9524179 81.106179,33.3316761 C80.687853,32.7109344 79.9884045,32.3825759 79.0078125,32.3465909 C77.9732429,32.3106059 77.1411016,32.5917347 76.5113636,33.1899858 C75.8816256,33.7882369 75.4093292,34.534915 75.0944602,35.4300426 C74.7795912,36.3251702 74.5726804,37.195545 74.4737216,38.0411932 C74.4107478,38.5899649 74.3815104,39.1769618 74.3860085,39.8022017 C74.3905067,40.4274416 74.4737208,41.0189366 74.6356534,41.5767045 C74.797586,42.1344725 75.0787149,42.5955237 75.4790483,42.9598722 C75.8793817,43.3242206 76.4393903,43.5153882 77.1590909,43.5333807 C78.0407241,43.5603695 78.8211377,43.3377154 79.5003551,42.8654119 C80.1795725,42.3931084 80.6091374,41.7161502 80.7890625,40.834517 L86.2677557,40.8075284 C86.1418081,42.3998659 85.6110369,43.7650275 84.6754261,44.903054 C83.7398154,46.0410805 82.5770666,46.9114553 81.1871449,47.5142045 C79.7972232,48.1169538 78.3465985,48.4048297 76.8352273,48.3778409 C74.865047,48.3508521 73.2434959,47.8605635 71.9705256,46.9069602 C70.6975552,45.953357 69.7889469,44.6961489 69.2446733,43.1352983 C68.7003997,41.5744477 68.5272244,39.8764296 68.725142,38.0411932 C68.9410522,36.1249904 69.5190531,34.3639995 70.4591619,32.7581676 C71.3992708,31.1523357 72.6429847,29.8726373 74.1903409,28.9190341 C75.7376971,27.9654308 77.5234274,27.5066286 79.5475852,27.5426136 C81.0859452,27.5696024 82.4353635,27.9384434 83.5958807,28.6491477 C84.7563978,29.359852 85.6582591,30.317939 86.3014915,31.5234375 C86.9447239,32.728936 87.2663352,34.0873504 87.2663352,35.5987216 Z M100.585227,48 L97.5759943,40.8075284 L95.0525568,43.290483 L94.2833807,48 L88.4538352,48 L93.1633523,19.4865057 L99.006392,19.4865057 L96.415483,34.4921875 L96.6044034,34.4786932 L102.825284,27.9339489 L109.977273,27.9474432 L101.705256,36.421875 L107.116477,48 L100.585227,48 Z M131.797585,48 L131.946023,45.8139205 C131.2803,46.5965948 130.524625,47.2263234 129.678977,47.703125 C128.833329,48.1799266 127.87974,48.4093277 126.818182,48.3913352 C125.414766,48.3733427 124.279005,48.0337391 123.410866,47.3725142 C122.542728,46.7112893 121.890509,45.8544087 121.45419,44.8018466 C121.017872,43.7492845 120.752486,42.6157731 120.658026,41.4012784 C120.563565,40.1867837 120.588304,39.0172878 120.732244,37.8927557 C120.894177,36.6512722 121.195547,35.4120564 121.636364,34.175071 C122.07718,32.9380857 122.670924,31.8135704 123.417614,30.8014915 C124.164303,29.7894126 125.077409,28.9842596 126.15696,28.3860085 C127.236511,27.7877574 128.49147,27.5066286 129.921875,27.5426136 C131.667149,27.5875949 133.066046,28.3162808 134.118608,29.7286932 L135.913352,19.4865057 L141.742898,19.4865057 L137.033381,48 L131.797585,48 Z M126.602273,37.865767 C126.539299,38.3515649 126.48982,38.9093245 126.453835,39.5390625 C126.41785,40.1688005 126.449337,40.7850349 126.548295,41.3877841 C126.647254,41.9905333 126.86541,42.4943162 127.20277,42.8991477 C127.54013,43.3039793 128.059656,43.5198862 128.761364,43.546875 C129.678982,43.58286 130.450399,43.3737002 131.075639,42.9193892 C131.700879,42.4650782 132.193417,41.8713342 132.553267,41.1381392 C132.913117,40.4049443 133.151515,39.6335268 133.268466,38.8238636 L133.470881,37.352983 C133.551847,36.6422786 133.56759,35.9045966 133.518111,35.1399148 C133.468631,34.3752329 133.248226,33.7230141 132.856889,33.1832386 C132.465552,32.6434632 131.815582,32.3600854 130.90696,32.3330966 C129.917372,32.2971116 129.125713,32.5759913 128.53196,33.1697443 C127.938207,33.7634973 127.492899,34.4966812 127.196023,35.3693182 C126.899146,36.2419551 126.701232,37.0740964 126.602273,37.865767 Z M157.922585,44.8423295 C157.364817,45.6789815 156.642878,46.3604377 155.756747,46.8867188 C154.870616,47.4129998 153.917027,47.797584 152.895952,48.040483 C151.874877,48.2833819 150.887552,48.3958334 149.933949,48.3778409 C148.017746,48.3598484 146.38495,47.8987971 145.035511,46.9946733 C143.686073,46.0905495 142.689752,44.8828201 142.04652,43.3714489 C141.403288,41.8600777 141.180633,40.1733048 141.378551,38.3110795 C141.594461,36.3858805 142.15447,34.6001503 143.058594,32.9538352 C143.962718,31.3075202 145.174945,29.9850902 146.695312,28.9865057 C148.21568,27.9879211 150.010406,27.5021305 152.079545,27.5291193 C153.959763,27.5561081 155.486855,28.0284045 156.660866,28.9460227 C157.834878,29.863641 158.662521,31.0623742 159.143821,32.5422585 C159.625121,34.0221428 159.76681,35.6301997 159.568892,37.3664773 L159.299006,39.9169034 L147.127131,39.9034091 C147.145123,40.9919562 147.462237,41.860082 148.07848,42.5078125 C148.694724,43.155543 149.556102,43.4928976 150.662642,43.5198864 C151.535279,43.5468751 152.302198,43.3714508 152.963423,42.993608 C153.624648,42.6157652 154.238634,42.1074843 154.805398,41.46875 L157.922585,44.8423295 Z M151.566761,32.3330966 C150.820072,32.3061078 150.190343,32.4747851 149.677557,32.8391335 C149.16477,33.2034819 148.737454,33.6712803 148.395597,34.2425426 C148.053739,34.8138049 147.765863,35.409798 147.53196,36.0305398 L154.090199,36.0305398 C154.234139,35.1219178 154.105944,34.2875275 153.705611,33.5273438 C153.305277,32.76716 152.592335,32.3690816 151.566761,32.3330966 Z M172.078125,19.5944602 L167.395597,48 L161.552557,48 L166.24858,19.5944602 L172.078125,19.5944602 Z M189.013494,44.8423295 C188.455726,45.6789815 187.733788,46.3604377 186.847656,46.8867188 C185.961525,47.4129998 185.007936,47.797584 183.986861,48.040483 C182.965786,48.2833819 181.978461,48.3958334 181.024858,48.3778409 C179.108655,48.3598484 177.475859,47.8987971 176.12642,46.9946733 C174.776982,46.0905495 173.780661,44.8828201 173.137429,43.3714489 C172.494197,41.8600777 172.271543,40.1733048 172.46946,38.3110795 C172.68537,36.3858805 173.245379,34.6001503 174.149503,32.9538352 C175.053627,31.3075202 176.265854,29.9850902 177.786222,28.9865057 C179.306589,27.9879211 181.101315,27.5021305 183.170455,27.5291193 C185.050672,27.5561081 186.577764,28.0284045 187.751776,28.9460227 C188.925787,29.863641 189.75343,31.0623742 190.23473,32.5422585 C190.71603,34.0221428 190.857719,35.6301997 190.659801,37.3664773 L190.389915,39.9169034 L178.21804,39.9034091 C178.236032,40.9919562 178.553146,41.860082 179.169389,42.5078125 C179.785633,43.155543 180.647012,43.4928976 181.753551,43.5198864 C182.626188,43.5468751 183.393107,43.3714508 184.054332,42.993608 C184.715557,42.6157652 185.329543,42.1074843 185.896307,41.46875 L189.013494,44.8423295 Z M182.65767,32.3330966 C181.910981,32.3061078 181.281253,32.4747851 180.768466,32.8391335 C180.255679,33.2034819 179.828363,33.6712803 179.486506,34.2425426 C179.144648,34.8138049 178.856772,35.409798 178.622869,36.0305398 L185.181108,36.0305398 C185.325048,35.1219178 185.196853,34.2875275 184.79652,33.5273438 C184.396186,32.76716 183.683244,32.3690816 182.65767,32.3330966 Z M203.290483,47.8650568 C202.7687,48.0719707 202.228933,48.2114106 201.671165,48.2833807 C201.113397,48.3553507 200.551139,48.3868372 199.984375,48.3778409 C198.113154,48.3418559 196.736747,47.7683531 195.855114,46.6573153 C194.97348,45.5462776 194.636126,44.0686645 194.84304,42.2244318 L196.62429,32.2116477 L194.060369,32.2521307 L194.600142,27.9069602 L197.177557,27.9474432 L198.027699,22.8870739 L203.857244,22.8870739 L203.007102,27.9474432 L206.232244,27.9069602 L205.705966,32.2521307 L202.46733,32.2116477 L200.78054,41.4822443 C200.699573,42.1299748 200.755799,42.6135164 200.949219,42.9328835 C201.142638,43.2522506 201.576701,43.4209279 202.25142,43.4389205 C202.512312,43.4479167 202.773199,43.4411696 203.034091,43.418679 C203.294982,43.3961883 203.55587,43.371449 203.816761,43.3444602 L203.290483,47.8650568 Z M220.455256,27.6775568 L219.672585,33.4801136 C219.483664,33.4531249 219.294745,33.4351326 219.105824,33.4261364 C218.916902,33.4171401 218.723486,33.408144 218.525568,33.3991477 C217.446017,33.3901515 216.467689,33.6352958 215.590554,34.1345881 C214.713419,34.6338803 214.171403,35.4592745 213.964489,36.6107955 L212.129261,48 L206.299716,48 L209.551847,27.9069602 L215.381392,27.9069602 L214.922585,30.5383523 L215.003551,30.524858 C215.46236,29.7511798 216.069598,29.0652255 216.825284,28.4669744 C217.58097,27.8687233 218.431103,27.5651042 219.37571,27.556108 C219.564632,27.556108 219.746803,27.5696021 219.92223,27.5965909 C220.097657,27.6235797 220.275331,27.650568 220.455256,27.6775568 Z M228.09304,48.3238636 C226.167841,48.2968749 224.604765,47.788594 223.403764,46.7990057 C222.202764,45.8094174 221.35263,44.5319681 220.853338,42.9666193 C220.354046,41.4012706 220.189867,39.7459841 220.360795,38.0007102 C220.504736,36.6152866 220.853335,35.2906076 221.406605,34.0266335 C221.959875,32.7626594 222.695308,31.6403932 223.612926,30.6598011 C224.530544,29.6792091 225.598834,28.9077916 226.817827,28.3455256 C228.03682,27.7832595 229.383989,27.5156249 230.859375,27.5426136 C232.280784,27.5606062 233.502007,27.8619762 234.523082,28.446733 C235.544158,29.0314897 236.369552,29.8119033 236.99929,30.7879972 C237.629028,31.7640911 238.067589,32.8593689 238.314986,34.0738636 C238.562383,35.2883583 238.618609,36.5343213 238.483665,37.8117898 C238.30374,39.674015 237.770719,41.4102666 236.884588,43.0205966 C235.998457,44.6309266 234.810969,45.9241192 233.322088,46.9002131 C231.833208,47.876307 230.090209,48.3508524 228.09304,48.3238636 Z M228.524858,43.5333807 C229.253555,43.5603695 229.876536,43.3894431 230.393821,43.0205966 C230.911106,42.65175 231.336173,42.1682085 231.669034,41.5699574 C232.001896,40.9717063 232.260534,40.3374797 232.444957,39.6672585 C232.629381,38.9970374 232.753077,38.3740559 232.816051,37.7982955 C232.861032,37.3484826 232.881274,36.8199604 232.876776,36.2127131 C232.872277,35.6054657 232.800308,35.0117217 232.660866,34.4314631 C232.521424,33.8512045 232.27628,33.3631649 231.925426,32.9673295 C231.574572,32.5714942 231.075287,32.3600854 230.427557,32.3330966 C229.707856,32.3061078 229.091622,32.4747851 228.578835,32.8391335 C228.066049,33.2034819 227.640982,33.6802764 227.303622,34.2695312 C226.966263,34.8587861 226.705375,35.4862656 226.520952,36.1519886 C226.336528,36.8177117 226.212832,37.433946 226.149858,38.0007102 C226.104877,38.4685156 226.082386,39.0082829 226.082386,39.6200284 C226.082386,40.2317739 226.152106,40.830016 226.291548,41.4147727 C226.43099,41.9995294 226.676135,42.4920671 227.026989,42.8924006 C227.377843,43.292734 227.877127,43.5063919 228.524858,43.5333807 Z M247.929687,37.2585227 L246.215909,48 L240.386364,48 L243.638494,27.9069602 L248.820312,27.8934659 L248.617898,29.9850852 L248.752841,29.9850852 C250.282205,28.3207777 252.193881,27.5066286 254.487926,27.5426136 C255.990301,27.5696024 257.182287,27.9496886 258.06392,28.6828835 C258.945554,29.4160785 259.550543,30.3719165 259.878906,31.5504261 C260.20727,32.7289358 260.290484,34.0018871 260.128551,35.3693182 L258.104403,48 L252.261364,48 L254.272017,35.571733 C254.370976,34.735081 254.231536,33.99515 253.853693,33.3519176 C253.47585,32.7086852 252.82813,32.3690816 251.910511,32.3330966 C251.010886,32.2971116 250.291196,32.5400069 249.75142,33.0617898 C249.211645,33.5835727 248.802321,34.2312935 248.523437,35.0049716 C248.244554,35.7786497 248.046639,36.5298259 247.929687,37.2585227 Z" id="slack-deletron" fill="#303030"></path>
                    <rect id="Rectangle-3" stroke="#040404" stroke-width="6" x="0" y="0" width="279" height="69"></rect>
                </g>
            </g>
        </g>
    </g>
</svg>