<?xml version="1.0" encoding="UTF-8"?>
<svg width="162px" height="199px" viewBox="0 0 162 199" version="1.1" xmlns="http://www.w3.org/2000/svg" xmlns:xlink="http://www.w3.org/1999/xlink">
    <!-- Generator: Sketch 49.3 (51167) - http://www.bohemiancoding.com/sketch -->
    <title>Page-1</title>
    <desc>Created with Sketch.</desc>
    <defs></defs>
    <g id="Page-1" stroke="none" stroke-width="1" fill="none" fill-rule="evenodd">
        <g id="Desktop-HD-Copy-5" transform="translate(-858.000000, -386.000000)" fill="#1C2023" fill-rule="nonzero">
            <g id="Page-1" transform="translate(858.000000, 386.000000)">
                <g id="filehappy">
                    <path d="M152,51.9295238 L114,14.0247618 L19,14.0247618 L19,184.59619 L152,184.59619 L152,51.9295238 Z M114,34.1142857 L131.86,51.9295238 L114,51.9295238 L114,34.1142857 Z M137.75,170.381904 L33.25,170.381904 L33.25,28.2390475 L104.5,28.2390475 L104.5,61.4057142 L137.75,61.4057142 L137.75,170.381904 Z" id="Shape" transform="translate(85.500000, 99.310476) rotate(14.000000) translate(-85.500000, -99.310476) "></path>
                    <g id="Group" transform="translate(83.587910, 109.754198) rotate(15.000000) translate(-83.587910, -109.754198) translate(45.587910, 82.254198)">
                        <ellipse id="Oval" cx="13.9063919" cy="8.8922384" rx="9.04991768" ry="8.88780494"></ellipse>
                        <ellipse id="Oval" cx="60.5803673" cy="8.89215539" rx="9.05000223" ry="8.88788796"></ellipse>
                        <path d="M3.23308453,54.9299744 C2.74952501,54.9300574 2.25894883,54.821047 1.79838375,54.5909874 C0.237889863,53.8113918 -0.383720816,51.9370414 0.410009997,50.4044179 C3.12817239,45.1562202 8.17240822,40.690524 14.9973604,37.4900309 C21.7370134,34.3296381 29.7024727,32.6590287 38.0326307,32.6590287 C46.3233937,32.6590287 54.2579966,34.315026 60.9784593,37.4481866 C67.7794873,40.6187911 72.8276963,45.0476248 75.5773914,50.2558048 C76.3832958,51.7823676 75.7765639,53.6614504 74.2223259,54.4529183 C72.6678343,55.2443865 70.7545618,54.64844 69.9486574,53.1221263 C67.871634,49.1879497 63.7202925,45.6193281 58.2594516,43.0734794 C52.3831891,40.3340187 45.3889065,38.8859136 38.0326307,38.8859136 C30.6419476,38.8859136 23.6211201,40.3463063 17.7293026,43.1091798 C12.254851,45.6763656 8.11103336,49.2697285 6.06123136,53.2274007 C5.50184092,54.3077924 4.38813236,54.9298914 3.23308453,54.9299744 Z" id="Shape" transform="translate(37.999344, 43.794502) rotate(180.000000) translate(-37.999344, -43.794502) "></path>
                    </g>
                </g>
            </g>
        </g>
    </g>
</svg>